<svg width="210" height="24" viewBox="0 0 210 24" fill="none" xmlns="http://www.w3.org/2000/svg">
<path d="M204.185 14.6891C204.765 14.3844 205.429 14.2109 206.136 14.2109H206.138C206.21 14.2109 206.244 14.1266 206.191 14.0797C205.456 13.4344 204.616 12.9132 203.705 12.5375C203.696 12.5328 203.686 12.5305 203.677 12.5258C205.165 11.4687 206.133 9.75078 206.133 7.8125C206.133 4.60156 203.478 2 200.201 2C196.925 2 194.272 4.60156 194.272 7.8125C194.272 9.75078 195.24 11.4687 196.731 12.5258C196.721 12.5305 196.712 12.5328 196.702 12.5375C195.631 12.9805 194.669 13.6156 193.843 14.4266C193.02 15.229 192.366 16.1803 191.916 17.2273C191.472 18.2526 191.233 19.3512 191.211 20.4641C191.21 20.4891 191.215 20.514 191.224 20.5373C191.233 20.5605 191.247 20.5818 191.265 20.5997C191.283 20.6176 191.305 20.6318 191.328 20.6415C191.352 20.6513 191.377 20.6563 191.403 20.6562H192.838C192.941 20.6562 193.028 20.5742 193.03 20.4734C193.078 18.6641 193.819 16.9695 195.13 15.6852C196.484 14.3563 198.286 13.625 200.204 13.625C201.563 13.625 202.866 13.993 203.991 14.682C204.019 14.6998 204.053 14.7098 204.087 14.711C204.121 14.7122 204.155 14.7047 204.185 14.6891ZM200.204 11.8438C199.106 11.8438 198.073 11.4242 197.294 10.6625C196.911 10.2887 196.607 9.84443 196.4 9.35529C196.193 8.86616 196.087 8.34183 196.088 7.8125C196.088 6.73672 196.517 5.72422 197.294 4.9625C198.071 4.20078 199.104 3.78125 200.204 3.78125C201.304 3.78125 202.334 4.20078 203.113 4.9625C203.497 5.33631 203.8 5.78057 204.007 6.26971C204.214 6.75884 204.32 7.28317 204.319 7.8125C204.319 8.88828 203.89 9.90078 203.113 10.6625C202.334 11.4242 201.301 11.8438 200.204 11.8438ZM209.019 17.4219H207.006V15.4531C207.006 15.35 206.919 15.2656 206.814 15.2656H205.472C205.366 15.2656 205.28 15.35 205.28 15.4531V17.4219H203.267C203.161 17.4219 203.075 17.5063 203.075 17.6094V18.9219C203.075 19.025 203.161 19.1094 203.267 19.1094H205.28V21.0781C205.28 21.1812 205.366 21.2656 205.472 21.2656H206.814C206.919 21.2656 207.006 21.1812 207.006 21.0781V19.1094H209.019C209.125 19.1094 209.211 19.025 209.211 18.9219V17.6094C209.211 17.5063 209.125 17.4219 209.019 17.4219Z" fill="white"/>
<path d="M19 21L13 15L19 21ZM15 10C15 10.9193 14.8189 11.8295 14.4672 12.6788C14.1154 13.5281 13.5998 14.2997 12.9497 14.9497C12.2997 15.5998 11.5281 16.1154 10.6788 16.4672C9.82951 16.8189 8.91925 17 8 17C7.08075 17 6.1705 16.8189 5.32122 16.4672C4.47194 16.1154 3.70026 15.5998 3.05025 14.9497C2.40024 14.2997 1.88463 13.5281 1.53284 12.6788C1.18106 11.8295 1 10.9193 1 10C1 8.14348 1.7375 6.36301 3.05025 5.05025C4.36301 3.7375 6.14348 3 8 3C9.85652 3 11.637 3.7375 12.9497 5.05025C14.2625 6.36301 15 8.14348 15 10Z" stroke="white" stroke-width="2" stroke-linecap="round" stroke-linejoin="round"/>
<path d="M103.967 23.518C104.387 23.5077 104.79 23.3404 105.104 23.0455C105.419 22.7506 105.625 22.3473 105.687 21.9067H102.18C102.243 22.3592 102.459 22.7721 102.787 23.0685C103.116 23.3648 103.535 23.5246 103.967 23.518Z" fill="white"/>
<path d="M103.967 23.518C104.387 23.5077 104.79 23.3404 105.104 23.0455C105.419 22.7506 105.625 22.3473 105.687 21.9067H102.18C102.243 22.3592 102.459 22.7721 102.787 23.0685C103.116 23.3648 103.535 23.5246 103.967 23.518Z" stroke="white"/>
<path d="M113.772 18.4149C113.125 17.8254 112.558 17.1496 112.087 16.4057C111.573 15.3788 111.265 14.2573 111.181 13.1072V9.71956C111.178 9.30807 111.143 8.89752 111.074 8.49206C110.546 8.38417 110.038 8.18964 109.57 7.91603C109.749 8.50224 109.839 9.11259 109.839 9.72642V13.114C109.921 14.5171 110.299 15.8855 110.946 17.1257C111.41 17.8759 111.959 18.5666 112.584 19.183H95.396C96.0204 18.5666 96.5702 17.8759 97.0336 17.1257C97.6809 15.8855 98.0587 14.5171 98.1409 13.114V9.71956C98.1374 8.92593 98.2871 8.13938 98.5815 7.40495C98.8759 6.67052 99.3092 6.00264 99.8565 5.43954C100.404 4.87645 101.055 4.4292 101.771 4.12341C102.488 3.81762 103.257 3.65929 104.034 3.6575C105.17 3.65843 106.282 4.00192 107.228 4.64498C107.124 4.25341 107.065 3.85058 107.054 3.44492V3.01289C106.353 2.66066 105.6 2.42896 104.826 2.32714V1.46309C104.826 1.22029 104.731 0.987432 104.563 0.815746C104.395 0.64406 104.167 0.547607 103.93 0.547607C103.692 0.547607 103.464 0.64406 103.296 0.815746C103.128 0.987432 103.034 1.22029 103.034 1.46309V2.36143C101.299 2.61142 99.7118 3.49411 98.5646 4.84655C97.4174 6.19899 96.7877 7.92984 96.7919 9.71956V13.1072C96.7079 14.2573 96.3999 15.3788 95.8859 16.4057C95.4234 17.1479 94.8659 17.8236 94.2282 18.4149C94.1566 18.4792 94.0992 18.5583 94.0599 18.647C94.0205 18.7356 94.0001 18.8319 94 18.9292V19.8619C94 20.0437 94.0707 20.2182 94.1966 20.3468C94.3224 20.4754 94.4931 20.5476 94.6711 20.5476H113.329C113.507 20.5476 113.678 20.4754 113.803 20.3468C113.929 20.2182 114 20.0437 114 19.8619V18.9292C114 18.8319 113.979 18.7356 113.94 18.647C113.901 18.5583 113.843 18.4792 113.772 18.4149Z" fill="white"/>
<path d="M111.967 7.06667C113.808 7.06667 115.3 5.48474 115.3 3.53333C115.3 1.58193 113.808 0 111.967 0C110.126 0 108.633 1.58193 108.633 3.53333C108.633 5.48474 110.126 7.06667 111.967 7.06667Z" fill="url(#paint0_linear_1_43)"/>
<path d="M111.967 7.06667C113.808 7.06667 115.3 5.48474 115.3 3.53333C115.3 1.58193 113.808 0 111.967 0C110.126 0 108.633 1.58193 108.633 3.53333C108.633 5.48474 110.126 7.06667 111.967 7.06667Z" stroke="white"/>
<defs>
<linearGradient id="paint0_linear_1_43" x1="111.967" y1="0" x2="111.967" y2="7.06667" gradientUnits="userSpaceOnUse">
<stop stop-color="#326CFF"/>
<stop offset="1" stop-color="#26FFF2"/>
</linearGradient>
</defs>
</svg>
